{
  "accessors": [
    {
      "bufferView": 2,
      "componentType": 5126,
      "count": 1300,
      "max": [
        1.3064799308776855,
        1.000087857246399,
        1.3926342725753784
      ],
      "min": [
        -1.3064799308776855,
        -1.179295301437378,
        -1.3916128873825073
      ],
      "type": "VEC3"
    },
    {
      "bufferView": 2,
      "byteOffset": 15600,
      "componentType": 5126,
      "count": 1300,
      "max": [
        1.0,
        1.0,
        1.0
      ],
      "min": [
        -1.0,
        -1.0,
        -1.0
      ],
      "type": "VEC3"
    },
    {
      "bufferView": 1,
      "componentType": 5126,
      "count": 1300,
      "max": [
        0.75,
        0.875
      ],
      "min": [
        0.2499999850988388,
        0.375
      ],
      "type": "VEC2"
    },
    {
      "bufferView": 0,
      "componentType": 5125,
      "count": 6924,
      "type": "SCALAR"
    },
    {
      "bufferView": 2,
      "byteOffset": 31200,
      "componentType": 5126,
      "count": 1116,
      "max": [
        1.3500306606292725,
        1.1084145307540894,
        1.4102234840393066
      ],
      "min": [
        -1.3500306606292725,
        0.9316923022270203,
        -1.407161831855774
      ],
      "type": "VEC3"
    },
    {
      "bufferView": 2,
      "byteOffset": 44592,
      "componentType": 5126,
      "count": 1116,
      "max": [
        1.0,
        0.999152660369873,
        1.0
      ],
      "min": [
        -1.0,
        -0.9999895095825195,
        -1.0
      ],
      "type": "VEC3"
    },
    {
      "bufferView": 1,
      "byteOffset": 10400,
      "componentType": 5126,
      "count": 1116,
      "max": [
        0.7499945163726807,
        0.875
      ],
      "min": [
        0.6166759133338928,
        0.4424314796924591
      ],
      "type": "VEC2"
    },
    {
      "bufferView": 0,
      "byteOffset": 27696,
      "componentType": 5125,
      "count": 4896,
      "type": "SCALAR"
    },
    {
      "bufferView": 2,
      "byteOffset": 57984,
      "componentType": 5126,
      "count": 128,
      "max": [
        1.0,
        1.963457703590393,
        1.0
      ],
      "min": [
        -1.0,
        -1.0,
        -1.0
      ],
      "type": "VEC3"
    },
    {
      "bufferView": 2,
      "byteOffset": 59520,
      "componentType": 5126,
      "count": 128,
      "max": [
        1.0,
        1.0,
        1.0
      ],
      "min": [
        -1.0,
        -1.0,
        -1.0
      ],
      "type": "VEC3"
    },
    {
      "bufferView": 1,
      "byteOffset": 19328,
      "componentType": 5126,
      "count": 128,
      "max": [
        0.7462153434753418,
        0.8712153434753418
      ],
      "min": [
        0.2537846565246582,
        0.37878459692001343
      ],
      "type": "VEC2"
    },
    {
      "bufferView": 0,
      "byteOffset": 47280,
      "componentType": 5125,
      "count": 564,
      "type": "SCALAR"
    },
    {
      "bufferView": 2,
      "byteOffset": 61056,
      "componentType": 5126,
      "count": 204,
      "max": [
        1.0,
        1.0,
        1.0
      ],
      "min": [
        -1.0,
        -1.0,
        -1.0
      ],
      "type": "VEC3"
    },
    {
      "bufferView": 2,
      "byteOffset": 63504,
      "componentType": 5126,
      "count": 204,
      "max": [
        1.0,
        1.0,
        1.0
      ],
      "min": [
        -1.0,
        -1.0,
        -1.0
      ],
      "type": "VEC3"
    },
    {
      "bufferView": 1,
      "byteOffset": 20352,
      "componentType": 5126,
      "count": 204,
      "max": [
        0.75,
        0.875
      ],
      "min": [
        0.25,
        0.375
      ],
      "type": "VEC2"
    },
    {
      "bufferView": 0,
      "byteOffset": 49536,
      "componentType": 5125,
      "count": 900,
      "type": "SCALAR"
    },
    {
      "bufferView": 2,
      "byteOffset": 65952,
      "componentType": 5126,
      "count": 113,
      "max": [
        0.9586652517318726,
        1.0312074422836304,
        1.0395294427871704
      ],
      "min": [
        -0.9586652517318726,
        0.6236310601234436,
        0.6285185217857361
      ],
      "type": "VEC3"
    },
    {
      "bufferView": 2,
      "byteOffset": 67308,
      "componentType": 5126,
      "count": 113,
      "max": [
        0.8188605904579163,
        1.0,
        1.0
      ],
      "min": [
        -0.8188605904579163,
        -0.9999831914901733,
        -0.9999892711639404
      ],
      "type": "VEC3"
    },
    {
      "bufferView": 1,
      "byteOffset": 21984,
      "componentType": 5126,
      "count": 113,
      "max": [
        0.75,
        0.875
      ],
      "min": [
        0.6080158352851868,
        0.7324345111846924
      ],
      "type": "VEC2"
    },
    {
      "bufferView": 0,
      "byteOffset": 53136,
      "componentType": 5125,
      "count": 408,
      "type": "SCALAR"
    },
    {
      "bufferView": 2,
      "byteOffset": 68664,
      "componentType": 5126,
      "count": 2337,
      "max": [
        20.96123504638672,
        40.59034729003906,
        102.42696380615234
      ],
      "min": [
        -20.96123504638672,
        -32.199806213378906,
        25.884571075439453
      ],
      "type": "VEC3"
    },
    {
      "bufferView": 2,
      "byteOffset": 96708,
      "componentType": 5126,
      "count": 2337,
      "max": [
        1.0,
        1.0,
        1.0
      ],
      "min": [
        -1.0,
        -1.0,
        -1.0
      ],
      "type": "VEC3"
    },
    {
      "bufferView": 1,
      "byteOffset": 22888,
      "componentType": 5126,
      "count": 2337,
      "max": [
        1.0,
        1.0000001192092896
      ],
      "min": [
        7.450579886381092e-08,
        0.4999999403953552
      ],
      "type": "VEC2"
    },
    {
      "bufferView": 0,
      "byteOffset": 54768,
      "componentType": 5125,
      "count": 10224,
      "type": "SCALAR"
    },
    {
      "bufferView": 2,
      "byteOffset": 124752,
      "componentType": 5126,
      "count": 2342,
      "max": [
        1.162588119506836,
        3.9105377197265625,
        -8.30369758605957
      ],
      "min": [
        -1.162588119506836,
        -2.124052047729492,
        -11.152973175048828
      ],
      "type": "VEC3"
    },
    {
      "bufferView": 2,
      "byteOffset": 152856,
      "componentType": 5126,
      "count": 2342,
      "max": [
        1.0,
        1.0,
        1.0
      ],
      "min": [
        -1.0,
        -1.0,
        -1.0
      ],
      "type": "VEC3"
    },
    {
      "bufferView": 1,
      "byteOffset": 41584,
      "componentType": 5126,
      "count": 2342,
      "max": [
        0.75,
        0.8750000596046448
      ],
      "min": [
        0.24981696903705597,
        0.3749999701976776
      ],
      "type": "VEC2"
    },
    {
      "bufferView": 0,
      "byteOffset": 95664,
      "componentType": 5125,
      "count": 8244,
      "type": "SCALAR"
    },
    {
      "bufferView": 2,
      "byteOffset": 180960,
      "componentType": 5126,
      "count": 146,
      "max": [
        1.1445896625518799,
        2.312763214111328,
        -8.32188606262207
      ],
      "min": [
        -1.1445896625518799,
        2.2557528018951416,
        -11.1336030960083
      ],
      "type": "VEC3"
    },
    {
      "bufferView": 2,
      "byteOffset": 182712,
      "componentType": 5126,
      "count": 146,
      "max": [
        1.0,
        0.9993892908096313,
        0.9976500272750854
      ],
      "min": [
        -1.0,
        -0.9993892908096313,
        -0.9992378950119019
      ],
      "type": "VEC3"
    },
    {
      "bufferView": 1,
      "byteOffset": 60320,
      "componentType": 5126,
      "count": 146,
      "max": [
        0.3837500810623169,
        0.875
      ],
      "min": [
        0.375,
        0.375
      ],
      "type": "VEC2"
    },
    {
      "bufferView": 0,
      "byteOffset": 128640,
      "componentType": 5125,
      "count": 600,
      "type": "SCALAR"
    },
    {
      "bufferView": 2,
      "byteOffset": 184464,
      "componentType": 5126,
      "count": 72,
      "max": [
        1.0,
        0.01487112045288086,
        1.7446351051330566
      ],
      "min": [
        -1.0,
        0.0,
        -2.22967267036438
      ],
      "type": "VEC3"
    },
    {
      "bufferView": 2,
      "byteOffset": 185328,
      "componentType": 5126,
      "count": 72,
      "max": [
        0.9839611053466797,
        1.0,
        0.9794098734855652
      ],
      "min": [
        -0.9839611053466797,
        -1.0,
        -0.9794098734855652
      ],
      "type": "VEC3"
    },
    {
      "bufferView": 1,
      "byteOffset": 61488,
      "componentType": 5126,
      "count": 72,
      "max": [
        1.0,
        1.0
      ],
      "min": [
        0.0,
        0.0
      ],
      "type": "VEC2"
    },
    {
      "bufferView": 0,
      "byteOffset": 131040,
      "componentType": 5125,
      "count": 324,
      "type": "SCALAR"
    }
  ],
  "asset": {
    "extras": {
      "author": "Firdaus Sahak (https://sketchfab.com/firdaussahak)",
      "license": "CC-BY-4.0 (http://creativecommons.org/licenses/by/4.0/)",
      "source": "https://sketchfab.com/3d-models/boat-dc676eac5985450a9271f9b31eb47778",
      "title": "Boat"
    },
    "generator": "Sketchfab-12.56.0",
    "version": "2.0"
  },
  "bufferViews": [
    {
      "buffer": 0,
      "byteLength": 132336,
      "name": "floatBufferViews",
      "target": 34963
    },
    {
      "buffer": 0,
      "byteLength": 62064,
      "byteOffset": 132336,
      "byteStride": 8,
      "name": "floatBufferViews",
      "target": 34962
    },
    {
      "buffer": 0,
      "byteLength": 186192,
      "byteOffset": 194400,
      "byteStride": 12,
      "name": "floatBufferViews",
      "target": 34962
    }
  ],
  "buffers": [
    {
      "byteLength": 380592,
      "uri": "scene.bin"
    }
  ],
  "materials": [
    {
      "doubleSided": true,
      "name": "white",
      "pbrMetallicRoughness": {
        "baseColorFactor": [
          0.397221,
          0.397221,
          0.397221,
          1.0
        ],
        "metallicFactor": 0.0,
        "roughnessFactor": 0.4
      }
    },
    {
      "doubleSided": true,
      "name": "black",
      "pbrMetallicRoughness": {
        "baseColorFactor": [
          2.26282e-05,
          0.0,
          0.0120378,
          1.0
        ],
        "metallicFactor": 0.0,
        "roughnessFactor": 0.5
      }
    },
    {
      "doubleSided": true,
      "name": "silver",
      "pbrMetallicRoughness": {
        "baseColorFactor": [
          0.718987,
          0.718987,
          0.718987,
          1.0
        ],
        "metallicFactor": 0.6,
        "roughnessFactor": 0.2
      }
    }
  ],
  "meshes": [
    {
      "name": "Object_0",
      "primitives": [
        {
          "attributes": {
            "NORMAL": 1,
            "POSITION": 0,
            "TEXCOORD_0": 2
          },
          "indices": 3,
          "material": 0,
          "mode": 4
        }
      ]
    },
    {
      "name": "Object_1",
      "primitives": [
        {
          "attributes": {
            "NORMAL": 5,
            "POSITION": 4,
            "TEXCOORD_0": 6
          },
          "indices": 7,
          "material": 1,
          "mode": 4
        }
      ]
    },
    {
      "name": "Object_2",
      "primitives": [
        {
          "attributes": {
            "NORMAL": 9,
            "POSITION": 8,
            "TEXCOORD_0": 10
          },
          "indices": 11,
          "material": 0,
          "mode": 4
        }
      ]
    },
    {
      "name": "Object_3",
      "primitives": [
        {
          "attributes": {
            "NORMAL": 13,
            "POSITION": 12,
            "TEXCOORD_0": 14
          },
          "indices": 15,
          "material": 0,
          "mode": 4
        }
      ]
    },
    {
      "name": "Object_4",
      "primitives": [
        {
          "attributes": {
            "NORMAL": 17,
            "POSITION": 16,
            "TEXCOORD_0": 18
          },
          "indices": 19,
          "material": 1,
          "mode": 4
        }
      ]
    },
    {
      "name": "Object_5",
      "primitives": [
        {
          "attributes": {
            "NORMAL": 21,
            "POSITION": 20,
            "TEXCOORD_0": 22
          },
          "indices": 23,
          "material": 2,
          "mode": 4
        }
      ]
    },
    {
      "name": "Object_6",
      "primitives": [
        {
          "attributes": {
            "NORMAL": 25,
            "POSITION": 24,
            "TEXCOORD_0": 26
          },
          "indices": 27,
          "material": 1,
          "mode": 4
        }
      ]
    },
    {
      "name": "Object_7",
      "primitives": [
        {
          "attributes": {
            "NORMAL": 29,
            "POSITION": 28,
            "TEXCOORD_0": 30
          },
          "indices": 31,
          "material": 2,
          "mode": 4
        }
      ]
    },
    {
      "name": "Object_8",
      "primitives": [
        {
          "attributes": {
            "NORMAL": 33,
            "POSITION": 32,
            "TEXCOORD_0": 34
          },
          "indices": 35,
          "material": 1,
          "mode": 4
        }
      ]
    }
  ],
  "nodes": [
    {
      "children": [
        1
      ],
      "matrix": [
        1.0,
        0.0,
        0.0,
        0.0,
        0.0,
        2.220446049250313e-16,
        -1.0,
        0.0,
        0.0,
        1.0,
        2.220446049250313e-16,
        0.0,
        0.0,
        0.0,
        0.0,
        1.0
      ],
      "name": "Sketchfab_model"
    },
    {
      "children": [
        2
      ],
      "name": "root"
    },
    {
      "children": [
        3,
        6,
        8,
        10,
        12,
        14,
        17
      ],
      "matrix": [
        1.0,
        0.0,
        0.0,
        0.0,
        0.0,
        2.220446049250313e-16,
        1.0,
        0.0,
        0.0,
        -1.0,
        2.220446049250313e-16,
        0.0,
        0.0,
        0.0,
        0.0,
        1.0
      ],
      "name": "GLTF_SceneRootNode"
    },
    {
      "children": [
        4,
        5
      ],
      "matrix": [
        2.3524208068847656,
        0.0,
        0.0,
        0.0,
        0.0,
        1.0,
        0.0,
        0.0,
        0.0,
        0.0,
        5.993377208709717,
        0.0,
        0.0,
        1.6120173931121826,
        0.0,
        1.0
      ],
      "name": "boat_0"
    },
    {
      "mesh": 0,
      "name": "Object_4"
    },
    {
      "mesh": 1,
      "name": "Object_5"
    },
    {
      "children": [
        7
      ],
      "matrix": [
        1.0,
        0.0,
        0.0,
        0.0,
        0.0,
        1.0,
        0.0,
        0.0,
        0.0,
        0.0,
        1.0,
        0.0,
        0.0,
        1.7223308086395264,
        -0.4849037826061249,
        1.0
      ],
      "name": "control_1"
    },
    {
      "mesh": 2,
      "name": "Object_7"
    },
    {
      "children": [
        9
      ],
      "matrix": [
        1.0,
        0.0,
        0.0,
        0.0,
        0.0,
        1.0,
        0.0,
        0.0,
        0.0,
        0.0,
        1.0,
        0.0,
        0.0,
        1.689344048500061,
        -3.9521291255950928,
        1.0
      ],
      "name": "seat_2"
    },
    {
      "mesh": 3,
      "name": "Object_9"
    },
    {
      "children": [
        11
      ],
      "matrix": [
        1.0,
        0.0,
        0.0,
        0.0,
        0.0,
        1.0,
        0.0,
        0.0,
        0.0,
        0.0,
        1.0,
        0.0,
        0.0,
        1.689344048500061,
        -3.9521291255950928,
        1.0
      ],
      "name": "cushion_3"
    },
    {
      "mesh": 4,
      "name": "Object_11"
    },
    {
      "children": [
        13
      ],
      "matrix": [
        0.05651243403553963,
        0.0,
        -0.0,
        0.0,
        -0.0,
        0.0,
        -0.05651243403553963,
        0.0,
        0.0,
        0.05651243403553963,
        0.0,
        0.0,
        0.0,
        -0.7151364088058472,
        0.0,
        1.0
      ],
      "name": "pole_4"
    },
    {
      "mesh": 5,
      "name": "Object_13"
    },
    {
      "children": [
        15,
        16
      ],
      "matrix": [
        0.9142475128173828,
        0.0,
        0.0,
        0.0,
        0.0,
        0.9142475128173828,
        0.0,
        0.0,
        0.0,
        0.0,
        0.9142475128173828,
        0.0,
        0.0,
        -0.08707870543003082,
        0.0332086905837059,
        1.0
      ],
      "name": "engine_5"
    },
    {
      "mesh": 6,
      "name": "Object_15"
    },
    {
      "mesh": 7,
      "name": "Object_16"
    },
    {
      "children": [
        18
      ],
      "matrix": [
        1.1479474306106567,
        0.0,
        0.0,
        0.0,
        0.0,
        1.0,
        0.0,
        0.0,
        0.0,
        0.0,
        1.018088459968567,
        0.0,
        0.0,
        5.067653656005859,
        0.0,
        1.0
      ],
      "name": "roof_6"
    },
    {
      "mesh": 8,
      "name": "Object_18"
    }
  ],
  "scene": 0,
  "scenes": [
    {
      "name": "Sketchfab_Scene",
      "nodes": [
        0
      ]
    }
  ]
}
